<?xml version="1.0" encoding="utf-8"?>
<!-- Generator: Adobe Illustrator 28.0.0, SVG Export Plug-In . SVG Version: 6.00 Build 0)  -->
<svg version="1.1" id="Capa_1" xmlns="http://www.w3.org/2000/svg" xmlns:xlink="http://www.w3.org/1999/xlink" x="0px" y="0px"
	 viewBox="0 0 408 372" style="enable-background:new 0 0 408 372;" xml:space="preserve">
<style type="text/css">
	.st0{stroke:#000000;stroke-width:2;stroke-miterlimit:10;}
</style>
<g>
	<path class="st0" d="M395,142c-1.12,7.39-1.92,14.84-3.4,22.15c-6.93,34.12-23.26,63.56-45.35,90
		c-29.6,35.43-65.82,62.78-105.54,85.68c-10.57,6.09-21.66,11.27-32.44,17.01c-3.42,1.82-6.46,1.58-9.91-0.02
		c-30.79-14.27-59.61-31.75-86.5-52.46c-3.78-2.91-4.43-5.51-2.21-8.52c2.25-3.04,5.36-3.22,9.1-0.34
		c25.1,19.33,52.02,35.65,80.55,49.37c2.81,1.35,5.05,1.49,7.95,0.06c43.48-21.53,83.36-48.14,117.2-83.23
		c22.78-23.62,41.19-50.15,51.36-81.72c8.84-27.45,11.42-55.26,2.65-83.26c-8.04-25.66-22.93-46.23-46.67-59.48
		c-34.4-19.2-75.82-11.32-102.86,19.14c-8.2,9.24-14.6,19.59-19.29,31.01c-1.21,2.95-2.21,5.95-6.19,6.01
		c-3.98,0.05-5.07-2.85-6.3-5.84c-7.95-19.15-19.91-35.15-37.29-46.7c-34.8-23.13-78.37-17.44-107.5,14.42
		c-22.89,25.02-31.31,55.14-28.97,88.53c3.08,43.77,23.16,79.75,51.83,111.6c6.17,6.86,12.97,13.16,19.44,19.75
		c2.83,2.88,2.94,5.67,0.45,8.21c-2.37,2.42-5.26,2.59-7.95,0.09c-27.06-25.19-49.82-53.53-63.44-88.37
		c-10.89-27.89-15.21-56.67-9.65-86.35C19.97,77.24,35,51.08,61.5,32.52c37.46-26.23,85.85-21.7,119.24,10.72
		c8.21,7.97,15.04,17,20.57,27.02c0.58,1.05,1.23,2.05,1.68,2.8c5.33-7.47,10.05-15.31,15.96-22.12
		c21.5-24.78,48.41-37.71,81.63-34.88c26.27,2.24,47.64,14.56,64.81,34.25c17.03,19.51,26.2,42.5,28.91,68.18
		c0.12,1.1,0.46,2.18,0.7,3.26C395,128.5,395,135.25,395,142z"/>
</g>
</svg>
