<?xml version="1.0" encoding="utf-8"?>
<!-- Generator: Adobe Illustrator 28.0.0, SVG Export Plug-In . SVG Version: 6.00 Build 0)  -->
<svg version="1.1" id="Capa_1" xmlns="http://www.w3.org/2000/svg" xmlns:xlink="http://www.w3.org/1999/xlink" x="0px" y="0px"
	 viewBox="0 0 408 372" style="enable-background:new 0 0 408 372;" xml:space="preserve">
<g>
	<path d="M85.19,62.05c-15.73,0-31.13,0.21-46.5-0.13c-4.33-0.1-9.01-1.03-12.85-2.94c-7.67-3.84-11.19-12.42-9.76-21.19
		c1.3-7.95,7.61-15.63,15.67-16.12c11.92-0.72,24.2-1.3,35.87,0.72c17.71,3.06,29.42,17.57,32.28,36.25
		c1.28,8.35,2.69,16.69,4.1,25.4c12.68,0.94,25.13,1.89,37.57,2.78c29.28,2.11,58.55,4.19,87.83,6.28
		c29.28,2.09,58.55,4.18,87.83,6.29c17.76,1.28,35.53,2.37,53.26,3.93c15.43,1.35,24.92,15.91,20.76,31.5
		c-5.02,18.85-10.21,37.66-15.34,56.48c-1.09,4.01-2.38,7.98-3.29,12.03c-4.39,19.54-17.34,29.66-36.47,32.42
		c-8.54,1.23-17.25,1.76-25.89,1.78c-58.24,0.15-116.49,0.08-174.73,0.08c-1.9,0-3.81,0-6.41,0c1.89,11.72,3.7,23,5.61,34.85
		c2.11,0,4.14,0,6.18,0c70.44,0,140.88,0,211.32,0c1.44,0,2.9-0.09,4.33,0.05c4.39,0.4,7.28,3.44,7.22,7.48
		c-0.06,3.85-2.8,6.71-7.01,7.13c-1.59,0.16-3.21,0.1-4.81,0.1c-73.01,0-146.02,0-219.02,0c-9.71,0-10.99-1.03-12.54-10.52
		c-11.37-69.8-22.72-139.6-34.1-209.4C86.06,65.73,85.65,64.18,85.19,62.05z M173.22,222.46c1.63,0.11,2.89,0.26,4.14,0.26
		c44.28,0.01,88.55,0.13,132.83-0.1c9.25-0.05,18.59-0.82,27.72-2.32c9.89-1.62,16.79-7.48,19.54-17.57
		c6.5-23.91,13.12-47.79,19.56-71.72c2.02-7.5-1.78-12.65-9.6-13.22c-41.1-2.98-82.22-5.87-123.32-8.83
		c-29.11-2.1-58.21-4.25-87.32-6.37c-1.17-0.09-2.35-0.01-3.81-0.01C159.77,142.91,166.48,182.61,173.22,222.46z M106.47,99.07
		c2.11,13.1,4.08,25.4,6.09,37.7c4.48,27.46,8.95,54.92,13.53,82.36c0.21,1.27,1.52,3.36,2.36,3.38c9.72,0.24,19.45,0.15,29.78,0.15
		c-6.9-40.82-13.68-80.96-20.5-121.35C127.35,100.57,117.32,99.85,106.47,99.07z M79.62,47.42c-4.09-6.89-11.61-11.34-19.83-11.61
		c-7.52-0.25-15.05-0.09-22.58-0.12c-3.94-0.01-6.64,1.63-6.61,5.84c0.03,4.19,2.8,5.87,6.67,5.88
		C51.21,47.44,65.14,47.42,79.62,47.42z"/>
	<path d="M362.84,320.48c-0.03,16.77-13.93,30.59-30.68,30.52c-16.79-0.07-30.62-13.99-30.52-30.71
		c0.1-16.83,13.94-30.57,30.71-30.5C349.17,289.86,362.87,303.65,362.84,320.48z M332.21,336.06c8.85,0.01,15.95-7.03,15.89-15.76
		c-0.06-8.53-6.99-15.5-15.57-15.65c-8.84-0.15-15.94,6.75-16.01,15.57C316.45,329.13,323.3,336.05,332.21,336.06z"/>
	<path d="M194.29,320.63c-0.11,16.74-14.15,30.55-30.86,30.37c-16.81-0.19-30.63-14.21-30.4-30.86
		c0.23-16.85,14.13-30.51,30.89-30.35C180.75,289.95,194.4,303.81,194.29,320.63z M163.75,336.06c8.84-0.03,15.9-7.14,15.76-15.87
		c-0.14-8.59-7.06-15.45-15.66-15.53c-8.87-0.09-15.86,6.81-15.88,15.68C147.94,329.24,154.82,336.1,163.75,336.06z"/>
</g>
</svg>
