<?xml version="1.0" encoding="UTF-8"?>
<svg id="Capa_1" data-name="Capa 1" xmlns="http://www.w3.org/2000/svg" viewBox="0 0 134.79 134.85">
  <defs>
    <style>
      .cls-1 {
        fill: #fff;
        stroke-width: 0px;
      }
    </style>
  </defs>
  <path class="cls-1" d="m34.5,0c21.94,0,43.87,0,65.81,0,1.38.22,2.77.36,4.13.67,15.27,3.43,25.06,12.68,29.25,27.77.55,1.97.74,4.03,1.1,6.05v65.81c-.08.47-.13.95-.25,1.41-.91,3.51-1.34,7.24-2.84,10.48-6.71,14.54-18.25,22.31-34.28,22.53-20,.28-40.01.08-60.01.06-7.75,0-14.93-2.1-21.25-6.6C5.44,120.52.07,110.01.03,96.85-.02,77.2,0,57.55.05,37.89c0-2.53.14-5.12.68-7.58C4.1,15.05,13.39,5.3,28.44,1.11,30.41.56,32.48.36,34.5,0Zm88.34,67.41c0-9.74,0-19.47,0-29.21,0-3.08-.31-6.13-1.35-9.06-3.81-10.72-13.04-17.17-24.69-17.18-19.61-.02-39.21-.06-58.82.05-2.93.02-6,.42-8.77,1.35-10.77,3.62-17.22,12.96-17.24,24.6-.03,19.61-.01,39.21,0,58.82,0,3.04.34,6.03,1.37,8.92,3.8,10.62,12.95,17.09,24.47,17.12,19.74.05,39.47.04,59.21,0,8.84-.02,15.96-3.55,21.18-10.73,3.31-4.56,4.65-9.74,4.65-15.33-.01-9.78,0-19.56,0-29.34Z"/>
  <path class="cls-1" d="m102.13,67.37c.02,19.07-15.68,34.77-34.75,34.75-19.1-.02-34.78-15.74-34.71-34.78.06-19.07,15.61-34.62,34.68-34.68,19.05-.06,34.76,15.62,34.78,34.72Zm-11.98,0c-.02-12.55-10.23-22.76-22.76-22.73-12.56.02-22.75,10.23-22.73,22.76.02,12.56,10.23,22.75,22.76,22.74,12.55-.02,22.76-10.23,22.74-22.76Z"/>
  <path class="cls-1" d="m103.78,22.57c4.82.14,8.72,4.16,8.57,8.85-.15,4.94-4.2,8.76-9.09,8.6-4.7-.16-8.58-4.22-8.44-8.86.14-4.88,4.16-8.73,8.96-8.59Z"/>
</svg>