<?xml version="1.0" encoding="utf-8"?>
<!-- Generator: Adobe Illustrator 28.0.0, SVG Export Plug-In . SVG Version: 6.00 Build 0)  -->
<svg version="1.1" id="Capa_1" xmlns="http://www.w3.org/2000/svg" xmlns:xlink="http://www.w3.org/1999/xlink" x="0px" y="0px"
	 viewBox="0 0 408 372" style="enable-background:new 0 0 408 372;" xml:space="preserve">
<g>
	<path d="M68.87,119.87C68.95,65.67,111.35,17.38,169,13.72c55.46-3.53,102.39,36.19,111.17,87.48c5.8,33.89-3.01,63.81-25.57,89.59
		c-3.07,3.51-3.06,5.71-0.83,9.53c22.29,38.26,44.33,76.66,66.54,114.96c3.83,6.6,5.83,13.44,4.31,21
		c-2.29,11.44-10.83,19.91-21.71,21.77c-12.04,2.05-22.84-2.77-29.06-13.47c-16.44-28.26-32.72-56.62-49.06-84.94
		c-6.38-11.06-12.86-22.07-19.1-33.21c-1.56-2.78-3.02-3.75-6.39-3c-60.25,13.37-117.61-24.89-128.6-85.77
		C69.64,131.79,69.46,125.8,68.87,119.87z M175.26,209.99c50.09-0.11,90.49-40.49,90.36-90.31c-0.13-49.23-40.75-89.7-90.04-89.68
		c-49.61,0.02-90.01,40.5-89.97,90.16C85.66,169.66,126.01,210.09,175.26,209.99z M219.47,217.34c0.5,1.04,0.88,1.97,1.38,2.83
		c22.12,38.33,44.26,76.66,66.39,114.99c0.51,0.88,1.01,1.78,1.63,2.59c3.14,4.18,7.9,5.6,12.72,3.86c4.63-1.68,7.72-6.1,6.99-11.21
		c-0.42-2.92-1.7-5.87-3.19-8.46c-21.29-37.04-42.69-74.03-64.07-111.02c-0.9-1.56-1.89-3.07-2.91-4.72
		C231.86,210.04,225.75,213.64,219.47,217.34z"/>
</g>
</svg>
